<svg xmlns="http://www.w3.org/2000/svg" xmlns:xlink="http://www.w3.org/1999/xlink" version="1.1" width="595.2756pt" height="419.5276pt" viewBox="0 0 595.2756 419.5276">
<path transform="matrix(1,0,0,-1,0,419.5276)" d="M0 419.5276H595.2756V0H0Z" fill="#003964" fill-rule="evenodd"/>
<path transform="matrix(1,0,0,-1,0,419.5276)" d="M156.2049 194.1506H202.396C203.955 194.1506 205.2303 192.8752 205.2303 191.3159V145.1251C205.2303 143.566 203.955 142.2904 202.396 142.2904H156.2049C154.6458 142.2904 153.3705 143.566 153.3705 145.1251V191.3159C153.3705 192.8752 154.6458 194.1506 156.2049 194.1506" fill="#3db6df" fill-rule="evenodd"/>
<path transform="matrix(1,0,0,-1,0,419.5276)" d="M245.6751 173.0616H241.2984C234.4907 173.0616 229.3404 174.9183 225.8481 178.6317 222.3558 182.3451 220.6097 187.6941 220.6097 194.6789V237.9132C220.6097 239.7699 221.538 240.6983 223.3947 240.6983H234.6676C236.5243 240.6983 237.4526 239.7699 237.4526 237.9132V195.4746C237.4526 192.6454 238.0493 190.6339 239.243 189.4402 240.4363 188.2468 242.4036 187.6499 245.1444 187.6499H250.0515C256.1519 187.6499 259.2023 191.0098 259.2023 197.729V237.9132C259.2023 239.7699 260.1306 240.6983 261.9873 240.6983H273.1275C275.0726 240.6983 276.0452 239.7699 276.0452 237.9132V175.8467C276.0452 173.99 275.0726 173.0616 273.1275 173.0616H261.9873C260.1306 173.0616 259.2023 173.99 259.2023 175.8467V180.2231H258.6716C257.6993 177.836 255.975 176.0457 253.4995 174.852 251.024 173.6583 248.4159 173.0616 245.6751 173.0616ZM314.3724 173.0616H311.1897C304.2048 173.0616 298.8116 174.9183 295.0098 178.6317 291.208 182.3451 289.3073 187.6941 289.3073 194.6789V219.081C289.3073 226.0655 291.208 231.4148 295.0098 235.1282 298.8116 238.8416 304.2048 240.6983 311.1897 240.6983H341.8248C343.77 240.6983 344.7425 239.7699 344.7425 237.9132V175.8467C344.7425 173.99 343.77 173.0616 341.8248 173.0616H330.6849C328.8283 173.0616 327.8999 173.99 327.8999 175.8467V180.2231H327.3693C326.3967 177.836 324.6727 176.0457 322.1972 174.852 319.7214 173.6583 317.1132 173.0616 314.3724 173.0616ZM327.8999 197.729V224.6511C327.8999 225.6236 327.3693 226.1098 326.3083 226.1098H313.842C311.0128 226.1098 309.0234 225.5131 307.874 224.3194 306.7248 223.126 306.15 221.1146 306.15 218.2853V195.4746C306.15 192.6454 306.7248 190.6339 307.874 189.4402 309.0234 188.2468 311.0128 187.6499 313.842 187.6499H318.7491C324.8495 187.6499 327.8999 191.0098 327.8999 197.729ZM374.0516 173.0616H362.7788C360.9221 173.0616 359.9938 173.99 359.9938 175.8467V263.5089C359.9938 265.3656 360.9221 266.294 362.7788 266.294H374.0516C375.9083 266.294 376.8367 265.3656 376.8367 263.5089V175.8467C376.8367 173.99 375.9083 173.0616 374.0516 173.0616ZM392.7509 252.1035V263.6416C392.7509 265.4099 393.6351 266.294 395.4033 266.294H406.9414C408.7097 266.294 409.5938 265.4541 409.5938 263.774V252.1035C409.5938 250.3352 408.7097 249.4511 406.9414 249.4511H395.4033C393.6351 249.4511 392.7509 250.3352 392.7509 252.1035ZM392.7509 175.8467V237.9132C392.7509 239.7699 393.6351 240.6983 395.4033 240.6983H406.8088C408.6655 240.6983 409.5938 239.7699 409.5938 237.9132V175.8467C409.5938 174.6972 409.3948 173.9458 408.9971 173.592 408.5991 173.2385 407.914 173.0616 406.9414 173.0616H395.536C393.6793 173.0616 392.7509 173.99 392.7509 175.8467ZM426.3038 226.1098H420.999C419.938 226.1098 419.2087 226.2866 418.811 226.6404 418.413 226.9939 418.214 227.7014 418.214 228.7624V237.9132C418.214 239.7699 419.1423 240.6983 420.999 240.6983H426.3038C427.2763 240.6983 427.7628 241.1844 427.7628 242.157V254.7558C427.7628 256.6125 428.7353 257.5409 430.6805 257.5409H441.8206C443.6773 257.5409 444.6057 256.6125 444.6057 254.7558V242.157C444.6057 241.1844 445.136 240.6983 446.197 240.6983H456.5415C458.3982 240.6983 459.3266 239.7699 459.3266 237.9132V228.7624C459.3266 227.7899 459.1276 227.1044 458.7296 226.7067 458.3319 226.3088 457.6025 226.1098 456.5415 226.1098H446.197C445.136 226.1098 444.6057 225.6236 444.6057 224.6511V195.342C444.6057 192.6011 445.2245 190.6339 446.4624 189.4402 447.7 188.2468 449.7335 187.6499 452.5628 187.6499H457.8676C459.7243 187.6499 460.6526 186.7215 460.6526 184.8648V175.714C460.6526 174.7414 460.4536 174.0563 460.0559 173.6583 459.6579 173.2606 458.9286 173.0616 457.8676 173.0616H449.7778C442.7932 173.0616 437.3776 174.9183 433.5318 178.6317 429.6858 182.3451 427.7628 187.6499 427.7628 194.5463V224.6511C427.7628 225.6236 427.2763 226.1098 426.3038 226.1098ZM482.6676 150.6487H474.1798C472.4116 150.6487 471.5274 151.6212 471.5274 153.5664V162.4521C471.5274 164.397 472.4116 165.3695 474.1798 165.3695H476.9649C482.5349 165.3695 486.3146 166.1434 488.304 167.6906 490.2934 169.2377 491.8184 172.2217 492.8794 176.6424H485.8506C484.1705 176.6424 483.0656 177.5707 482.5349 179.4274L467.0184 237.9132C466.488 239.7699 467.151 240.6983 469.0077 240.6983H480.8109C482.5791 240.6983 483.6844 239.7699 484.1266 237.9132L495.5318 188.9762H496.0624L507.335 237.9132C507.6887 239.7699 508.794 240.6983 510.6506 240.6983H521.7911C524.0013 240.6983 524.8854 239.7257 524.4435 237.7806L508.2633 173.0616C506.3182 165.7233 503.3123 160.1532 499.2452 156.3514 495.1783 152.5496 489.6524 150.6487 482.6676 150.6487" fill="#ffffff"/>
<path transform="matrix(1,0,0,-1,0,419.5276)" d="M232.484 142.2816H230.1381C229.7514 142.2816 229.5584 142.475 229.5584 142.8613V159.4491C229.5584 159.8355 229.7514 160.0288 230.1381 160.0288H236.8723C238.3078 160.0288 239.421 159.6376 240.2121 158.8555 241.0033 158.0737 241.399 156.9651 241.399 155.5299V152.8801C241.399 151.4449 241.0033 150.3363 240.2121 149.5542 239.421 148.7724 238.3078 148.3812 236.8723 148.3812H233.3948C233.174 148.3812 233.0637 148.28 233.0637 148.0776V142.8613C233.0637 142.475 232.8704 142.2816 232.484 142.2816ZM233.3673 151.4449H236.2929C236.8817 151.4449 237.2956 151.5691 237.5348 151.8177 237.774 152.066 237.8937 152.4753 237.8937 153.0459V155.3641C237.8937 155.9531 237.774 156.3715 237.5348 156.6201 237.2956 156.8684 236.8817 156.9926 236.2929 156.9926H233.3673C233.1649 156.9926 233.0637 156.8914 233.0637 156.689V151.7485C233.0637 151.5461 233.1649 151.4449 233.3673 151.4449ZM255.4954 142.2816H246.4702C246.0835 142.2816 245.8905 142.475 245.8905 142.8613V159.4491C245.8905 159.8355 246.0835 160.0288 246.4702 160.0288H255.4954C255.8633 160.0288 256.0473 159.8355 256.0473 159.4491V157.5723C256.0473 157.1859 255.8633 156.9926 255.4954 156.9926H249.7269C249.5061 156.9926 249.3958 156.8914 249.3958 156.689V153.1009C249.3958 152.8985 249.5061 152.7973 249.7269 152.7973H254.4466C254.8329 152.7973 255.0263 152.6043 255.0263 152.2176V150.3408C255.0263 149.9545 254.8329 149.7614 254.4466 149.7614H249.7269C249.5061 149.7614 249.3958 149.6602 249.3958 149.4578V145.6214C249.3958 145.4187 249.5061 145.3175 249.7269 145.3175H255.4954C255.8633 145.3175 256.0473 145.1245 256.0473 144.7381V142.8613C256.0473 142.475 255.8633 142.2816 255.4954 142.2816ZM264.6238 145.3175H267.6322C268.221 145.3175 268.6397 145.442 268.888 145.6903 269.1363 145.9386 269.2607 146.3573 269.2607 146.946V155.3641C269.2607 155.9531 269.1363 156.3715 268.888 156.6201 268.6397 156.8684 268.221 156.9926 267.6322 156.9926H264.6238C264.4214 156.9926 264.3202 156.8914 264.3202 156.689V145.6214C264.3202 145.4187 264.4214 145.3175 264.6238 145.3175ZM260.8149 142.8613V159.4491C260.8149 159.8355 261.0079 160.0288 261.3946 160.0288H268.2119C269.6471 160.0288 270.7648 159.6376 271.5653 158.8555 272.3655 158.0737 272.7658 156.9651 272.7658 155.5299V146.7805C272.7658 145.3453 272.3655 144.2367 271.5653 143.4546 270.7648 142.6725 269.6471 142.2816 268.2119 142.2816H261.3946C261.0079 142.2816 260.8149 142.475 260.8149 142.8613ZM280.7076 142.2816H278.3616C277.975 142.2816 277.782 142.475 277.782 142.8613V159.4491C277.782 159.8355 277.975 160.0288 278.3616 160.0288H284.9304C286.3655 160.0288 287.4881 159.6331 288.2976 158.8419 289.1072 158.0508 289.512 156.9373 289.512 155.5021V153.3495C289.512 151.2703 288.6934 149.8901 287.0558 149.2092V149.099L290.0089 142.9441C290.1745 142.5025 290.018 142.2816 289.5398 142.2816H287.3041C286.9727 142.2816 286.7338 142.3185 286.5864 142.3919 286.4392 142.4656 286.3196 142.6221 286.2278 142.8613L283.4677 148.8229H281.6184C281.3975 148.8229 281.2873 148.7217 281.2873 148.5193V142.8613C281.2873 142.475 281.094 142.2816 280.7076 142.2816ZM281.5909 151.6382H284.2957C284.8844 151.6382 285.3167 151.7624 285.5928 152.0107 285.8689 152.2593 286.007 152.6593 286.007 153.2115V155.3641C286.007 155.9347 285.8689 156.3486 285.5928 156.6062 285.3167 156.8639 284.8844 156.9926 284.2957 156.9926H281.5909C281.3885 156.9926 281.2873 156.8914 281.2873 156.689V151.9418C281.2873 151.7394 281.3885 151.6382 281.5909 151.6382ZM296.4325 142.2816H293.7827C293.4516 142.2816 293.341 142.475 293.4516 142.8613L297.8124 159.4491C297.9411 159.8355 298.2172 160.0288 298.6404 160.0288H302.3113C302.7713 160.0288 303.0471 159.8355 303.1393 159.4491L307.5001 142.8613C307.6106 142.475 307.5001 142.2816 307.169 142.2816H304.5192C304.3168 142.2816 304.179 142.323 304.1053 142.4058 304.0316 142.4886 303.9763 142.6405 303.9398 142.8613L303.1668 145.8972H297.7849L297.0119 142.8613C296.9751 142.6405 296.9155 142.4886 296.8325 142.4058 296.7497 142.323 296.6165 142.2816 296.4325 142.2816ZM300.4345 156.689 298.4471 148.7126H302.5321L300.5447 156.689ZM311.2189 146.808V147.3602C311.2189 147.7466 311.4122 147.9396 311.7986 147.9396H314.1445C314.5309 147.9396 314.7242 147.7466 314.7242 147.3602V147.1394C314.7242 146.4401 314.8622 145.9616 315.138 145.7042 315.4141 145.4465 315.9201 145.3175 316.6563 145.3175H317.9534C318.6709 145.3175 319.1723 145.4556 319.4575 145.7317 319.7429 146.0078 319.8855 146.5228 319.8855 147.2774V147.6085C319.8855 148.142 319.6692 148.5516 319.2367 148.8368 318.8044 149.1219 318.2661 149.292 317.622 149.3473 316.978 149.4026 316.2835 149.5083 315.5383 149.6648 314.7931 149.8212 314.0986 150.0236 313.4546 150.2719 312.8105 150.5203 312.2722 151.0081 311.8399 151.7349 311.4074 152.4617 311.1914 153.3954 311.1914 154.5361V155.5021C311.1914 156.9373 311.5962 158.0508 312.4057 158.8419 313.2153 159.6331 314.3378 160.0288 315.773 160.0288H318.5331C319.9867 160.0288 321.1183 159.6331 321.9279 158.8419 322.7374 158.0508 323.1422 156.9373 323.1422 155.5021V154.9777C323.1422 154.5914 322.9489 154.3983 322.5626 154.3983H320.2166C319.8302 154.3983 319.6369 154.5914 319.6369 154.9777V155.1433C319.6369 155.861 319.4989 156.3486 319.2231 156.6062 318.947 156.8639 318.441 156.9926 317.7051 156.9926H316.6285C315.8742 156.9926 315.3634 156.85 315.0967 156.5649 314.8299 156.2797 314.6964 155.723 314.6964 154.895V154.3706C314.6964 153.5057 315.451 153.0091 316.9599 152.8801 318.5237 152.7514 319.913 152.4385 321.1274 151.9418 321.7714 151.6657 322.3097 151.1736 322.742 150.4653 323.1746 149.7566 323.3906 148.8506 323.3906 147.7466V146.808C323.3906 145.3728 322.9858 144.2597 322.1762 143.4685 321.3666 142.6774 320.2441 142.2816 318.8089 142.2816H315.8005C314.3653 142.2816 313.2428 142.6774 312.4332 143.4685 311.6237 144.2597 311.2189 145.3728 311.2189 146.808ZM349.99 142.2816H340.9648C340.5781 142.2816 340.3851 142.475 340.3851 142.8613V159.4491C340.3851 159.8355 340.5781 160.0288 340.9648 160.0288H349.99C350.358 160.0288 350.5419 159.8355 350.5419 159.4491V157.5723C350.5419 157.1859 350.358 156.9926 349.99 156.9926H344.2215C344.0007 156.9926 343.8904 156.8914 343.8904 156.689V153.1009C343.8904 152.8985 344.0007 152.7973 344.2215 152.7973H348.9412C349.3276 152.7973 349.5209 152.6043 349.5209 152.2176V150.3408C349.5209 149.9545 349.3276 149.7614 348.9412 149.7614H344.2215C344.0007 149.7614 343.8904 149.6602 343.8904 149.4578V145.6214C343.8904 145.4187 344.0007 145.3175 344.2215 145.3175H349.99C350.358 145.3175 350.5419 145.1245 350.5419 144.7381V142.8613C350.5419 142.475 350.358 142.2816 349.99 142.2816ZM374.6849 142.2816H371.0693C370.6829 142.2816 370.453 142.475 370.3793 142.8613L366.1013 159.3938C365.9726 159.817 366.1566 160.0288 366.6532 160.0288H369.2477C369.6157 160.0288 369.8365 159.8355 369.9102 159.4491L372.8081 145.8697H372.9186L375.8165 159.4491C375.8902 159.8355 376.111 160.0288 376.4789 160.0288H379.0735C379.5335 160.0288 379.7175 159.817 379.6254 159.3938L375.3473 142.8613C375.2555 142.475 375.0347 142.2816 374.6849 142.2816ZM387.1806 159.4491V142.8613C387.1806 142.475 386.9875 142.2816 386.6012 142.2816H384.2549C383.8686 142.2816 383.6755 142.475 383.6755 142.8613V159.4491C383.6755 159.8355 383.8686 160.0288 384.2549 160.0288H386.6012C386.9875 160.0288 387.1806 159.8355 387.1806 159.4491ZM396.4195 145.3175H399.4279C400.0167 145.3175 400.4354 145.442 400.6837 145.6903 400.932 145.9386 401.0564 146.3573 401.0564 146.946V155.3641C401.0564 155.9531 400.932 156.3715 400.6837 156.6201 400.4354 156.8684 400.0167 156.9926 399.4279 156.9926H396.4195C396.2171 156.9926 396.1159 156.8914 396.1159 156.689V145.6214C396.1159 145.4187 396.2171 145.3175 396.4195 145.3175ZM392.6106 142.8613V159.4491C392.6106 159.8355 392.8037 160.0288 393.1903 160.0288H400.0076C401.4428 160.0288 402.5605 159.6376 403.361 158.8555 404.1612 158.0737 404.5615 156.9651 404.5615 155.5299V146.7805C404.5615 145.3453 404.1612 144.2367 403.361 143.4546 402.5605 142.6725 401.4428 142.2816 400.0076 142.2816H393.1903C392.8037 142.2816 392.6106 142.475 392.6106 142.8613ZM412.5033 142.2816H410.1574C409.7707 142.2816 409.5777 142.475 409.5777 142.8613V159.4491C409.5777 159.8355 409.7707 160.0288 410.1574 160.0288H416.7261C418.1613 160.0288 419.2838 159.6331 420.0934 158.8419 420.9029 158.0508 421.3077 156.9373 421.3077 155.5021V153.3495C421.3077 151.2703 420.4891 149.8901 418.8515 149.2092V149.099L421.8046 142.9441C421.9702 142.5025 421.8137 142.2816 421.3355 142.2816H419.0998C418.7684 142.2816 418.5295 142.3185 418.3821 142.3919 418.235 142.4656 418.1153 142.6221 418.0235 142.8613L415.2634 148.8229H413.4141C413.1933 148.8229 413.083 148.7217 413.083 148.5193V142.8613C413.083 142.475 412.8897 142.2816 412.5033 142.2816ZM413.3866 151.6382H416.0914C416.6802 151.6382 417.1124 151.7624 417.3885 152.0107 417.6646 152.2593 417.8027 152.6593 417.8027 153.2115V155.3641C417.8027 155.9347 417.6646 156.3486 417.3885 156.6062 417.1124 156.8639 416.6802 156.9926 416.0914 156.9926H413.3866C413.1842 156.9926 413.083 156.8914 413.083 156.689V151.9418C413.083 151.7394 413.1842 151.6382 413.3866 151.6382ZM431.2089 145.3175H433.1684C433.7575 145.3175 434.1759 145.442 434.4245 145.6903 434.6728 145.9386 434.7969 146.3573 434.7969 146.946V155.3641C434.7969 155.9531 434.6728 156.3715 434.4245 156.6201 434.1759 156.8684 433.7575 156.9926 433.1684 156.9926H431.2089C430.6201 156.9926 430.2062 156.8684 429.967 156.6201 429.7277 156.3715 429.6081 155.9531 429.6081 155.3641V146.946C429.6081 146.3573 429.7277 145.9386 429.967 145.6903 430.2062 145.442 430.6201 145.3175 431.2089 145.3175ZM433.7481 142.2816H430.6569C429.2033 142.2816 428.0808 142.668 427.2897 143.4407 426.4985 144.2137 426.1028 145.3269 426.1028 146.7805V155.5299C426.1028 156.9835 426.4985 158.0967 427.2897 158.8694 428.0808 159.6421 429.2033 160.0288 430.6569 160.0288H433.7481C435.2017 160.0288 436.3243 159.6421 437.1154 158.8694 437.9066 158.0967 438.3023 156.9835 438.3023 155.5299V146.7805C438.3023 145.3269 437.9066 144.2137 437.1154 143.4407 436.3243 142.668 435.2017 142.2816 433.7481 142.2816ZM442.8765 146.808V147.3602C442.8765 147.7466 443.0699 147.9396 443.4562 147.9396H445.8022C446.1885 147.9396 446.3819 147.7466 446.3819 147.3602V147.1394C446.3819 146.4401 446.5199 145.9616 446.7957 145.7042 447.0718 145.4465 447.5778 145.3175 448.314 145.3175H449.6111C450.3285 145.3175 450.83 145.4556 451.1151 145.7317 451.4006 146.0078 451.5432 146.5228 451.5432 147.2774V147.6085C451.5432 148.142 451.3269 148.5516 450.8943 148.8368 450.462 149.1219 449.9237 149.292 449.2797 149.3473 448.6357 149.4026 447.9412 149.5083 447.196 149.6648 446.4507 149.8212 445.7563 150.0236 445.1122 150.2719 444.4682 150.5203 443.9299 151.0081 443.4976 151.7349 443.065 152.4617 442.849 153.3954 442.849 154.5361V155.5021C442.849 156.9373 443.2538 158.0508 444.0634 158.8419 444.873 159.6331 445.9955 160.0288 447.4307 160.0288H450.1908C451.6444 160.0288 452.776 159.6331 453.5855 158.8419 454.3951 158.0508 454.7999 156.9373 454.7999 155.5021V154.9777C454.7999 154.5914 454.6066 154.3983 454.2202 154.3983H451.8743C451.4879 154.3983 451.2946 154.5914 451.2946 154.9777V155.1433C451.2946 155.861 451.1565 156.3486 450.8807 156.6062 450.6046 156.8639 450.0986 156.9926 449.3628 156.9926H448.2862C447.5319 156.9926 447.0211 156.85 446.7543 156.5649 446.4876 156.2797 446.3541 155.723 446.3541 154.895V154.3706C446.3541 153.5057 447.1087 153.0091 448.6175 152.8801 450.1814 152.7514 451.5707 152.4385 452.785 151.9418 453.4291 151.6657 453.9674 151.1736 454.3997 150.4653 454.8322 149.7566 455.0482 148.8506 455.0482 147.7466V146.808C455.0482 145.3728 454.6434 144.2597 453.8339 143.4685 453.0243 142.6774 451.9018 142.2816 450.4666 142.2816H447.4582C446.023 142.2816 444.9005 142.6774 444.0909 143.4685 443.2813 144.2597 442.8765 145.3728 442.8765 146.808" fill="#3db6df"/>
<path transform="matrix(1,0,0,-1,0,419.5276)" d="M138.4906 277.5504C157.2026 277.5504 174.1212 269.9402 186.4097 257.7005 197.712 246.4432 205.8423 229.6417 206.2596 212.616 206.3106 210.5252 206.3186 211.2712 206.1193 209.2351 205.9325 207.3254 204.5588 206.6363 203.7753 206.1077L186.0647 194.1531 186.0656 194.1506H174.693C176.7645 198.9428 177.9131 204.228 177.9131 209.7814 177.9131 220.6687 173.5007 230.525 166.3676 237.6584 159.2342 244.7915 149.3779 249.2039 138.4906 249.2039 127.6033 249.2039 117.7469 244.7915 110.6135 237.6584 103.4804 230.525 99.068 220.6687 99.068 209.7814 99.068 198.894 103.4804 189.0377 110.6135 181.9043 117.7469 174.7712 127.6033 170.3588 138.4906 170.3588 143.7554 170.3588 148.7789 171.3909 153.3705 173.2632V162.7934L141.4361 144.5692C140.6214 143.3251 139.6103 142.31 138.2658 142.2079 136.5659 142.0787 137.3885 141.9012 135.6559 142.0123 116.2582 143.2562 102.6952 150.0174 90.5715 161.8622 78.1651 173.9826 70.7213 191.0687 70.7213 209.7814 70.7213 228.4934 78.3071 245.4361 90.5715 257.7005 102.8358 269.9646 119.778 277.5504 138.4906 277.5504" fill="#ffffff"/>
</svg>
